<svg height="200px" width="200px" version="1.1" id="Layer_1" xmlns="http://www.w3.org/2000/svg" xmlns:xlink="http://www.w3.org/1999/xlink" viewBox="0 0 512 512" xml:space="preserve" fill="#000000"><g id="SVGRepo_bgCarrier" stroke-width="0"></g><g id="SVGRepo_tracerCarrier" stroke-linecap="round" stroke-linejoin="round"></g><g id="SVGRepo_iconCarrier"> <path style="fill:#AB91EA;" d="M0,256.006C0,397.402,114.606,512.004,255.996,512C397.394,512.004,512,397.402,512,256.006 C512.009,114.61,397.394,0,255.996,0C114.606,0,0,114.614,0,256.006z"></path> <path style="fill:#947ADB;" d="M512,256.005c0-4.183-0.117-8.338-0.315-12.473c-0.119-0.117-0.242-0.234-0.356-0.356 c-0.491-0.57-90.26-90.223-90.771-90.771c-15.147-17.577-40.739-26.278-72.031-26.547c-0.407-0.444-37.367-37.291-37.89-37.842 C294.78,70.657,276.138,60.733,256,60.733c-32.086,0-60.39,25.137-79.634,65.521c-0.596-0.037-1.22-0.134-1.813-0.166 c-43.243-2.343-75.04,10.222-89.501,35.27c-15.465,26.809-8.142,62.677,16.359,98.713c-24.506,36.037-31.828,71.907-16.355,98.716 c3.458,5.986,7.876,11.211,13.134,15.685c0.56,0.513,134.786,134.873,135.367,135.366c0.426,0.389,0.809,0.814,1.217,1.217 c7.005,0.576,14.069,0.945,21.222,0.945C397.394,512.004,512,397.401,512,256.005z"></path> <g> <path style="fill:#F6F6F6;" d="M410.598,260.06c24.5-36.035,31.818-71.902,16.343-98.71 c-15.196-26.317-49.013-37.847-91.367-35.225C316.333,85.815,288.052,60.733,256,60.733c-32.085,0-60.391,25.137-79.635,65.521 c-0.596-0.037-1.219-0.134-1.813-0.165c-43.243-2.343-75.041,10.222-89.501,35.269c-15.466,26.809-8.142,62.677,16.359,98.713 c-24.506,36.038-31.828,71.907-16.355,98.715c13.809,23.908,42.906,35.723,79.871,35.723c5.025,0,10.207-0.238,15.504-0.673 c19.061,35.628,45.68,57.431,75.571,57.431c29.892,0,56.512-21.805,75.573-57.436c5.294,0.435,10.474,0.673,15.498,0.673 c36.958,0,66.07-11.814,79.875-35.718C442.423,331.97,435.104,296.097,410.598,260.06z M412.851,169.486 c11.371,19.702,5.446,47.379-12.906,76.254c-11.482-14.237-25.537-28.31-41.841-41.675c-3.242-22.489-8.554-43.245-15.551-61.591 C375.689,141.474,401.722,150.209,412.851,169.486z M300.046,336.368c-14.609,8.433-29.412,15.516-44.051,21.409 c-14.635-5.893-29.431-12.974-44.035-21.405v0.004c-14.926-8.621-28.751-18.116-41.392-28.084 c-2.636-16.614-4.064-34.183-4.064-52.279c0-14.82,0.967-29.283,2.761-43.164c12.981-10.34,27.273-20.171,42.704-29.084v0.004 c14.646-8.457,29.488-15.557,44.165-21.461c14.672,5.973,29.413,13.094,43.905,21.466c15.43,8.909,29.718,18.734,42.699,29.069 c1.794,13.883,2.761,28.348,2.761,43.171c0,18.095-1.429,35.664-4.064,52.277C328.795,318.255,314.971,327.748,300.046,336.368z M336.629,332.318c-3.877,15.94-8.909,30.646-14.866,43.654c-13.775-1.913-28.403-5.326-43.426-10.109 c9.924-4.63,19.888-9.655,29.845-15.404C318.162,344.694,327.638,338.615,336.629,332.318z M233.652,365.861 c-15.019,4.781-29.645,8.193-43.417,10.105c-5.955-13.005-10.986-27.71-14.863-43.646c8.992,6.299,18.469,12.378,28.45,18.143 v0.004C213.775,356.211,223.734,361.234,233.652,365.861z M152.027,292.479c-11.485-10.588-21.582-21.493-29.978-32.409 c8.205-10.667,18.051-21.319,29.212-31.681c-0.663,9.011-1.03,18.222-1.03,27.621C150.231,268.514,150.865,280.688,152.027,292.479 z M186.979,143.558c15.062,1.83,30.838,5.399,46.917,10.578c-9.996,4.656-20.036,9.745-30.065,15.536v0.004 c-10.788,6.231-20.99,12.828-30.618,19.676C176.658,172.765,181.319,157.334,186.979,143.558z M278.375,154.265 c16.255-5.173,31.993-8.65,46.745-10.459c5.615,13.712,10.242,29.051,13.666,45.538c-9.626-6.844-19.826-13.436-30.612-19.663 C298.338,163.999,288.368,158.914,278.375,154.265z M360.739,228.377c11.165,10.363,21.013,21.018,29.221,31.686 c-8.397,10.918-18.497,21.826-29.986,32.416c1.162-11.792,1.795-23.965,1.795-36.467 C361.771,246.607,361.404,237.392,360.739,228.377z M256.001,77.006c23.719,0,45.622,19.63,61.834,51.003 c-19.54,2.854-40.413,8.35-61.91,16.66c-21.072-8.091-41.946-13.643-61.828-16.521C210.313,96.693,232.246,77.006,256.001,77.006z M99.146,169.49c10.8-18.709,35.766-28.235,70.377-27.215c-7.037,18.399-12.377,39.228-15.629,61.803 c-16.298,13.364-30.352,27.437-41.829,41.673C93.708,216.874,87.778,189.194,99.146,169.49z M99.15,350.65 c-11.372-19.701-5.444-47.38,12.913-76.258c11.827,14.668,26.382,29.164,43.312,42.889c3.846,22.185,9.745,42.506,17.301,60.27 C137.995,379.243,110.641,370.548,99.15,350.65z M256.001,434.994c-21.74,0-41.954-16.495-57.659-43.395 c18.289-3.01,37.738-8.473,57.657-16.166c19.921,7.693,39.372,13.154,57.662,16.164 C297.954,418.498,277.741,434.994,256.001,434.994z M412.855,350.65c-11.491,19.901-38.848,28.597-73.533,26.906 c7.558-17.765,13.457-38.089,17.303-60.275c16.934-13.728,31.493-28.226,43.321-42.897 C418.304,303.259,424.229,330.941,412.855,350.65z"></path> <path style="fill:#F6F6F6;" d="M256,231.591c-17.996,0-32.544,14.548-32.544,32.565c0,17.975,14.548,32.523,32.544,32.523 c17.977,0,32.545-14.548,32.545-32.523C288.545,246.14,273.977,231.591,256,231.591z"></path> </g> </g></svg>